# xmcd
#
# Track frame offsets:
#	150
#	17715
#	32612
#	46592
#	58540
#	68925
#	87030
#	98807
#	117587
#	128285
#	139800
#	156522
#	167855
#	177910
#	190215
#	203670
#	214622
#
# Disc length: 3029 seconds
#
# Revision: 1
# Processed by: cddbd v1.5.2PL0 Copyright (c) Steve Scherf et al.
# Submitted via: audiograbber 1.83.01
#
DISCID=e30bd311
DTITLE=Various Artist - Country Originals 2
DYEAR=1997
DGENRE=Country
TTITLE0=The Judds - Love Can Build A Bridge
TTITLE1=Larry Weiss - Rhinestone Cowboy
TTITLE2=Mark James - Suspicious Minds
TTITLE3=Skeeter Davis - End Of The World
TTITLE4=Johnny Darrell - Ruby, Don't take Your Love To Town
TTITLE5=John Denver - Leaving On A Jet Plane
TTITLE6=Jerry Lee Lewis - What Made Milwaukee Famous
TTITLE7=Kris Kristofferson - Me And Bobby McGee
TTITLE8=Dolly Parton - Love Is Like A Butterfly
TTITLE9=Sonny James - Minute You're Gone, The
TTITLE10=Tony Joe White - Rainy Night In Georgia
TTITLE11=Don Gibson - Oh Lonesome Me
TTITLE12=Willie Nelson - Bring Me Sunshine
TTITLE13=Ray Price - Release Me
TTITLE14=Dennis Linde - Burning Love
TTITLE15=Sonny Curtis - I Fought The Law
TTITLE16=Roy Orbison - Crying
EXTD=Connoisseur Collection VSOP CD 242\n015773 024226
EXTT0=
EXTT1=
EXTT2=
EXTT3=
EXTT4=
EXTT5=
EXTT6=
EXTT7=
EXTT8=
EXTT9=
EXTT10=
EXTT11=
EXTT12=
EXTT13=
EXTT14=
EXTT15=
EXTT16=
PLAYORDER=
